<mxfile host="app.diagrams.net" modified="2023-11-20T15:53:16.997Z" agent="Mozilla/5.0 (Windows NT 10.0; Win64; x64) AppleWebKit/537.36 (KHTML, like Gecko) Chrome/119.0.0.0 Safari/537.36 Edg/119.0.0.0" etag="T4lXnM3waDCiJkdxmTLy" version="22.1.3" type="device">
  <diagram id="C5RBs43oDa-KdzZeNtuy" name="Page-1">
    <mxGraphModel dx="610" dy="390" grid="1" gridSize="10" guides="1" tooltips="1" connect="1" arrows="1" fold="1" page="1" pageScale="1" pageWidth="827" pageHeight="1169" math="0" shadow="0">
      <root>
        <mxCell id="WIyWlLk6GJQsqaUBKTNV-0" />
        <mxCell id="WIyWlLk6GJQsqaUBKTNV-1" parent="WIyWlLk6GJQsqaUBKTNV-0" />
        <mxCell id="2V9lee69f_yGIt7Uckw--2" style="edgeStyle=orthogonalEdgeStyle;rounded=0;orthogonalLoop=1;jettySize=auto;html=1;" edge="1" parent="WIyWlLk6GJQsqaUBKTNV-1" source="2V9lee69f_yGIt7Uckw--0" target="2V9lee69f_yGIt7Uckw--1">
          <mxGeometry relative="1" as="geometry" />
        </mxCell>
        <mxCell id="2V9lee69f_yGIt7Uckw--0" value="start" style="ellipse;whiteSpace=wrap;html=1;" vertex="1" parent="WIyWlLk6GJQsqaUBKTNV-1">
          <mxGeometry x="290" y="170" width="120" height="80" as="geometry" />
        </mxCell>
        <mxCell id="2V9lee69f_yGIt7Uckw--5" style="edgeStyle=orthogonalEdgeStyle;rounded=0;orthogonalLoop=1;jettySize=auto;html=1;entryX=0.5;entryY=0;entryDx=0;entryDy=0;" edge="1" parent="WIyWlLk6GJQsqaUBKTNV-1" source="2V9lee69f_yGIt7Uckw--1" target="2V9lee69f_yGIt7Uckw--4">
          <mxGeometry relative="1" as="geometry" />
        </mxCell>
        <mxCell id="2V9lee69f_yGIt7Uckw--1" value="n, i, mid,j, end, start, choice, find,size" style="shape=parallelogram;perimeter=parallelogramPerimeter;whiteSpace=wrap;html=1;fixedSize=1;" vertex="1" parent="WIyWlLk6GJQsqaUBKTNV-1">
          <mxGeometry x="240" y="360" width="220" height="80" as="geometry" />
        </mxCell>
        <mxCell id="2V9lee69f_yGIt7Uckw--7" value="" style="edgeStyle=orthogonalEdgeStyle;rounded=0;orthogonalLoop=1;jettySize=auto;html=1;" edge="1" parent="WIyWlLk6GJQsqaUBKTNV-1" source="2V9lee69f_yGIt7Uckw--4" target="2V9lee69f_yGIt7Uckw--6">
          <mxGeometry relative="1" as="geometry" />
        </mxCell>
        <mxCell id="2V9lee69f_yGIt7Uckw--4" value="i=1&lt;br&gt;int arr[n]" style="rounded=0;whiteSpace=wrap;html=1;" vertex="1" parent="WIyWlLk6GJQsqaUBKTNV-1">
          <mxGeometry x="290" y="520" width="120" height="60" as="geometry" />
        </mxCell>
        <mxCell id="2V9lee69f_yGIt7Uckw--9" value="" style="edgeStyle=orthogonalEdgeStyle;rounded=0;orthogonalLoop=1;jettySize=auto;html=1;" edge="1" parent="WIyWlLk6GJQsqaUBKTNV-1" source="2V9lee69f_yGIt7Uckw--6" target="2V9lee69f_yGIt7Uckw--8">
          <mxGeometry relative="1" as="geometry" />
        </mxCell>
        <mxCell id="2V9lee69f_yGIt7Uckw--12" value="true" style="edgeLabel;html=1;align=center;verticalAlign=middle;resizable=0;points=[];" vertex="1" connectable="0" parent="2V9lee69f_yGIt7Uckw--9">
          <mxGeometry x="-0.425" y="-4" relative="1" as="geometry">
            <mxPoint as="offset" />
          </mxGeometry>
        </mxCell>
        <mxCell id="2V9lee69f_yGIt7Uckw--6" value="i&amp;lt;size" style="rhombus;whiteSpace=wrap;html=1;" vertex="1" parent="WIyWlLk6GJQsqaUBKTNV-1">
          <mxGeometry x="310" y="640" width="80" height="80" as="geometry" />
        </mxCell>
        <mxCell id="2V9lee69f_yGIt7Uckw--11" value="" style="edgeStyle=orthogonalEdgeStyle;rounded=0;orthogonalLoop=1;jettySize=auto;html=1;" edge="1" parent="WIyWlLk6GJQsqaUBKTNV-1" source="2V9lee69f_yGIt7Uckw--8" target="2V9lee69f_yGIt7Uckw--10">
          <mxGeometry relative="1" as="geometry" />
        </mxCell>
        <mxCell id="2V9lee69f_yGIt7Uckw--8" value="int key=arr[i]&lt;br&gt;j=i-1" style="rounded=0;whiteSpace=wrap;html=1;" vertex="1" parent="WIyWlLk6GJQsqaUBKTNV-1">
          <mxGeometry x="290" y="760" width="120" height="60" as="geometry" />
        </mxCell>
        <mxCell id="2V9lee69f_yGIt7Uckw--14" value="" style="edgeStyle=orthogonalEdgeStyle;rounded=0;orthogonalLoop=1;jettySize=auto;html=1;" edge="1" parent="WIyWlLk6GJQsqaUBKTNV-1" source="2V9lee69f_yGIt7Uckw--10" target="2V9lee69f_yGIt7Uckw--13">
          <mxGeometry relative="1" as="geometry" />
        </mxCell>
        <mxCell id="2V9lee69f_yGIt7Uckw--15" value="true" style="edgeLabel;html=1;align=center;verticalAlign=middle;resizable=0;points=[];" vertex="1" connectable="0" parent="2V9lee69f_yGIt7Uckw--14">
          <mxGeometry x="-0.375" y="1" relative="1" as="geometry">
            <mxPoint y="1" as="offset" />
          </mxGeometry>
        </mxCell>
        <mxCell id="2V9lee69f_yGIt7Uckw--18" value="" style="edgeStyle=orthogonalEdgeStyle;rounded=0;orthogonalLoop=1;jettySize=auto;html=1;" edge="1" parent="WIyWlLk6GJQsqaUBKTNV-1" source="2V9lee69f_yGIt7Uckw--10" target="2V9lee69f_yGIt7Uckw--17">
          <mxGeometry relative="1" as="geometry" />
        </mxCell>
        <mxCell id="2V9lee69f_yGIt7Uckw--19" value="false" style="edgeLabel;html=1;align=center;verticalAlign=middle;resizable=0;points=[];" vertex="1" connectable="0" parent="2V9lee69f_yGIt7Uckw--18">
          <mxGeometry x="0.0167" relative="1" as="geometry">
            <mxPoint y="1" as="offset" />
          </mxGeometry>
        </mxCell>
        <mxCell id="2V9lee69f_yGIt7Uckw--10" value="j&amp;gt;=0&amp;amp;&amp;amp;&lt;br&gt;arr[j]&amp;gt;key" style="rhombus;whiteSpace=wrap;html=1;" vertex="1" parent="WIyWlLk6GJQsqaUBKTNV-1">
          <mxGeometry x="500" y="750" width="80" height="80" as="geometry" />
        </mxCell>
        <mxCell id="2V9lee69f_yGIt7Uckw--16" style="edgeStyle=orthogonalEdgeStyle;rounded=0;orthogonalLoop=1;jettySize=auto;html=1;" edge="1" parent="WIyWlLk6GJQsqaUBKTNV-1" source="2V9lee69f_yGIt7Uckw--13">
          <mxGeometry relative="1" as="geometry">
            <mxPoint x="440" y="790" as="targetPoint" />
            <Array as="points">
              <mxPoint x="720" y="890" />
              <mxPoint x="440" y="890" />
            </Array>
          </mxGeometry>
        </mxCell>
        <mxCell id="2V9lee69f_yGIt7Uckw--13" value="arr[j+1]=arr[i]&lt;br&gt;j=j-1" style="rounded=0;whiteSpace=wrap;html=1;" vertex="1" parent="WIyWlLk6GJQsqaUBKTNV-1">
          <mxGeometry x="660" y="760" width="120" height="60" as="geometry" />
        </mxCell>
        <mxCell id="2V9lee69f_yGIt7Uckw--21" style="edgeStyle=orthogonalEdgeStyle;rounded=0;orthogonalLoop=1;jettySize=auto;html=1;" edge="1" parent="WIyWlLk6GJQsqaUBKTNV-1" source="2V9lee69f_yGIt7Uckw--17">
          <mxGeometry relative="1" as="geometry">
            <mxPoint x="350" y="600" as="targetPoint" />
            <Array as="points">
              <mxPoint x="540" y="600" />
            </Array>
          </mxGeometry>
        </mxCell>
        <mxCell id="2V9lee69f_yGIt7Uckw--17" value="arr[j+1]=key" style="rounded=0;whiteSpace=wrap;html=1;" vertex="1" parent="WIyWlLk6GJQsqaUBKTNV-1">
          <mxGeometry x="480" y="630" width="120" height="60" as="geometry" />
        </mxCell>
        <mxCell id="2V9lee69f_yGIt7Uckw--27" value="" style="edgeStyle=orthogonalEdgeStyle;rounded=0;orthogonalLoop=1;jettySize=auto;html=1;" edge="1" parent="WIyWlLk6GJQsqaUBKTNV-1" source="2V9lee69f_yGIt7Uckw--23" target="2V9lee69f_yGIt7Uckw--26">
          <mxGeometry relative="1" as="geometry" />
        </mxCell>
        <mxCell id="2V9lee69f_yGIt7Uckw--23" value="menu" style="rounded=0;whiteSpace=wrap;html=1;shape=parallelogram;perimeter=parallelogramPerimeter;fixedSize=1;" vertex="1" parent="WIyWlLk6GJQsqaUBKTNV-1">
          <mxGeometry x="300" y="910" width="120" height="60" as="geometry" />
        </mxCell>
        <mxCell id="2V9lee69f_yGIt7Uckw--24" style="edgeStyle=orthogonalEdgeStyle;rounded=0;orthogonalLoop=1;jettySize=auto;html=1;entryX=0;entryY=0.5;entryDx=0;entryDy=0;" edge="1" parent="WIyWlLk6GJQsqaUBKTNV-1" source="2V9lee69f_yGIt7Uckw--6" target="2V9lee69f_yGIt7Uckw--23">
          <mxGeometry relative="1" as="geometry">
            <Array as="points">
              <mxPoint x="200" y="680" />
              <mxPoint x="200" y="950" />
              <mxPoint x="300" y="950" />
            </Array>
          </mxGeometry>
        </mxCell>
        <mxCell id="2V9lee69f_yGIt7Uckw--25" value="false" style="edgeLabel;html=1;align=center;verticalAlign=middle;resizable=0;points=[];" vertex="1" connectable="0" parent="2V9lee69f_yGIt7Uckw--24">
          <mxGeometry x="-0.1369" y="-2" relative="1" as="geometry">
            <mxPoint as="offset" />
          </mxGeometry>
        </mxCell>
        <mxCell id="2V9lee69f_yGIt7Uckw--29" value="" style="edgeStyle=orthogonalEdgeStyle;rounded=0;orthogonalLoop=1;jettySize=auto;html=1;" edge="1" parent="WIyWlLk6GJQsqaUBKTNV-1" source="2V9lee69f_yGIt7Uckw--26" target="2V9lee69f_yGIt7Uckw--28">
          <mxGeometry relative="1" as="geometry" />
        </mxCell>
        <mxCell id="2V9lee69f_yGIt7Uckw--26" value="choice" style="shape=parallelogram;perimeter=parallelogramPerimeter;whiteSpace=wrap;html=1;fixedSize=1;" vertex="1" parent="WIyWlLk6GJQsqaUBKTNV-1">
          <mxGeometry x="300" y="1080" width="120" height="60" as="geometry" />
        </mxCell>
        <mxCell id="2V9lee69f_yGIt7Uckw--31" value="" style="edgeStyle=orthogonalEdgeStyle;rounded=0;orthogonalLoop=1;jettySize=auto;html=1;" edge="1" parent="WIyWlLk6GJQsqaUBKTNV-1" source="2V9lee69f_yGIt7Uckw--28" target="2V9lee69f_yGIt7Uckw--30">
          <mxGeometry relative="1" as="geometry" />
        </mxCell>
        <mxCell id="2V9lee69f_yGIt7Uckw--32" value="false" style="edgeLabel;html=1;align=center;verticalAlign=middle;resizable=0;points=[];" vertex="1" connectable="0" parent="2V9lee69f_yGIt7Uckw--31">
          <mxGeometry x="0.0667" y="-2" relative="1" as="geometry">
            <mxPoint as="offset" />
          </mxGeometry>
        </mxCell>
        <mxCell id="2V9lee69f_yGIt7Uckw--34" value="" style="edgeStyle=orthogonalEdgeStyle;rounded=0;orthogonalLoop=1;jettySize=auto;html=1;entryX=0;entryY=0.5;entryDx=0;entryDy=0;" edge="1" parent="WIyWlLk6GJQsqaUBKTNV-1" source="2V9lee69f_yGIt7Uckw--28" target="2V9lee69f_yGIt7Uckw--35">
          <mxGeometry relative="1" as="geometry">
            <mxPoint x="640" y="1110" as="targetPoint" />
          </mxGeometry>
        </mxCell>
        <mxCell id="2V9lee69f_yGIt7Uckw--36" value="true" style="edgeLabel;html=1;align=center;verticalAlign=middle;resizable=0;points=[];" vertex="1" connectable="0" parent="2V9lee69f_yGIt7Uckw--34">
          <mxGeometry x="-0.15" y="3" relative="1" as="geometry">
            <mxPoint as="offset" />
          </mxGeometry>
        </mxCell>
        <mxCell id="2V9lee69f_yGIt7Uckw--28" value="case==1" style="rhombus;whiteSpace=wrap;html=1;" vertex="1" parent="WIyWlLk6GJQsqaUBKTNV-1">
          <mxGeometry x="480" y="1070" width="80" height="80" as="geometry" />
        </mxCell>
        <mxCell id="2V9lee69f_yGIt7Uckw--50" value="" style="edgeStyle=orthogonalEdgeStyle;rounded=0;orthogonalLoop=1;jettySize=auto;html=1;" edge="1" parent="WIyWlLk6GJQsqaUBKTNV-1" source="2V9lee69f_yGIt7Uckw--30" target="2V9lee69f_yGIt7Uckw--49">
          <mxGeometry relative="1" as="geometry" />
        </mxCell>
        <mxCell id="2V9lee69f_yGIt7Uckw--51" value="true" style="edgeLabel;html=1;align=center;verticalAlign=middle;resizable=0;points=[];" vertex="1" connectable="0" parent="2V9lee69f_yGIt7Uckw--50">
          <mxGeometry x="-0.375" y="-1" relative="1" as="geometry">
            <mxPoint as="offset" />
          </mxGeometry>
        </mxCell>
        <mxCell id="2V9lee69f_yGIt7Uckw--63" style="edgeStyle=orthogonalEdgeStyle;rounded=0;orthogonalLoop=1;jettySize=auto;html=1;" edge="1" parent="WIyWlLk6GJQsqaUBKTNV-1" source="2V9lee69f_yGIt7Uckw--30" target="2V9lee69f_yGIt7Uckw--62">
          <mxGeometry relative="1" as="geometry" />
        </mxCell>
        <mxCell id="2V9lee69f_yGIt7Uckw--93" value="false" style="edgeLabel;html=1;align=center;verticalAlign=middle;resizable=0;points=[];" vertex="1" connectable="0" parent="2V9lee69f_yGIt7Uckw--63">
          <mxGeometry x="-0.005" relative="1" as="geometry">
            <mxPoint y="-1" as="offset" />
          </mxGeometry>
        </mxCell>
        <mxCell id="2V9lee69f_yGIt7Uckw--30" value="case==2" style="rhombus;whiteSpace=wrap;html=1;" vertex="1" parent="WIyWlLk6GJQsqaUBKTNV-1">
          <mxGeometry x="480" y="1380" width="80" height="80" as="geometry" />
        </mxCell>
        <mxCell id="2V9lee69f_yGIt7Uckw--45" value="" style="edgeStyle=orthogonalEdgeStyle;rounded=0;orthogonalLoop=1;jettySize=auto;html=1;" edge="1" parent="WIyWlLk6GJQsqaUBKTNV-1" source="2V9lee69f_yGIt7Uckw--35" target="2V9lee69f_yGIt7Uckw--42">
          <mxGeometry relative="1" as="geometry" />
        </mxCell>
        <mxCell id="2V9lee69f_yGIt7Uckw--35" value="i=0" style="rounded=0;whiteSpace=wrap;html=1;" vertex="1" parent="WIyWlLk6GJQsqaUBKTNV-1">
          <mxGeometry x="640" y="1080" width="120" height="60" as="geometry" />
        </mxCell>
        <mxCell id="2V9lee69f_yGIt7Uckw--37" value="arr[i]&lt;br&gt;i++" style="shape=parallelogram;perimeter=parallelogramPerimeter;whiteSpace=wrap;html=1;fixedSize=1;" vertex="1" parent="WIyWlLk6GJQsqaUBKTNV-1">
          <mxGeometry x="950" y="1080" width="120" height="60" as="geometry" />
        </mxCell>
        <mxCell id="2V9lee69f_yGIt7Uckw--43" value="" style="edgeStyle=orthogonalEdgeStyle;rounded=0;orthogonalLoop=1;jettySize=auto;html=1;" edge="1" parent="WIyWlLk6GJQsqaUBKTNV-1" source="2V9lee69f_yGIt7Uckw--42" target="2V9lee69f_yGIt7Uckw--37">
          <mxGeometry relative="1" as="geometry" />
        </mxCell>
        <mxCell id="2V9lee69f_yGIt7Uckw--44" value="true" style="edgeLabel;html=1;align=center;verticalAlign=middle;resizable=0;points=[];" vertex="1" connectable="0" parent="2V9lee69f_yGIt7Uckw--43">
          <mxGeometry x="-0.0571" y="-1" relative="1" as="geometry">
            <mxPoint y="1" as="offset" />
          </mxGeometry>
        </mxCell>
        <mxCell id="2V9lee69f_yGIt7Uckw--91" style="edgeStyle=orthogonalEdgeStyle;rounded=0;orthogonalLoop=1;jettySize=auto;html=1;" edge="1" parent="WIyWlLk6GJQsqaUBKTNV-1" source="2V9lee69f_yGIt7Uckw--42">
          <mxGeometry relative="1" as="geometry">
            <mxPoint x="1940" y="1250" as="targetPoint" />
            <Array as="points">
              <mxPoint x="867" y="1220" />
              <mxPoint x="1681" y="1220" />
            </Array>
          </mxGeometry>
        </mxCell>
        <mxCell id="2V9lee69f_yGIt7Uckw--92" value="false" style="edgeLabel;html=1;align=center;verticalAlign=middle;resizable=0;points=[];" vertex="1" connectable="0" parent="2V9lee69f_yGIt7Uckw--91">
          <mxGeometry x="-0.7196" y="5" relative="1" as="geometry">
            <mxPoint x="1" as="offset" />
          </mxGeometry>
        </mxCell>
        <mxCell id="2V9lee69f_yGIt7Uckw--42" value="i&amp;lt;n" style="rhombus;whiteSpace=wrap;html=1;" vertex="1" parent="WIyWlLk6GJQsqaUBKTNV-1">
          <mxGeometry x="827" y="1070" width="80" height="80" as="geometry" />
        </mxCell>
        <mxCell id="2V9lee69f_yGIt7Uckw--48" value="" style="endArrow=classic;html=1;rounded=0;exitX=0.5;exitY=0;exitDx=0;exitDy=0;" edge="1" parent="WIyWlLk6GJQsqaUBKTNV-1">
          <mxGeometry width="50" height="50" relative="1" as="geometry">
            <mxPoint x="1010" y="1080" as="sourcePoint" />
            <mxPoint x="790" y="1110" as="targetPoint" />
            <Array as="points">
              <mxPoint x="1010" y="1050" />
              <mxPoint x="790" y="1050" />
            </Array>
          </mxGeometry>
        </mxCell>
        <mxCell id="2V9lee69f_yGIt7Uckw--53" value="" style="edgeStyle=orthogonalEdgeStyle;rounded=0;orthogonalLoop=1;jettySize=auto;html=1;" edge="1" parent="WIyWlLk6GJQsqaUBKTNV-1" source="2V9lee69f_yGIt7Uckw--49" target="2V9lee69f_yGIt7Uckw--52">
          <mxGeometry relative="1" as="geometry" />
        </mxCell>
        <mxCell id="2V9lee69f_yGIt7Uckw--49" value="i=0" style="rounded=0;whiteSpace=wrap;html=1;" vertex="1" parent="WIyWlLk6GJQsqaUBKTNV-1">
          <mxGeometry x="670" y="1390" width="120" height="60" as="geometry" />
        </mxCell>
        <mxCell id="2V9lee69f_yGIt7Uckw--55" value="" style="edgeStyle=orthogonalEdgeStyle;rounded=0;orthogonalLoop=1;jettySize=auto;html=1;" edge="1" parent="WIyWlLk6GJQsqaUBKTNV-1" source="2V9lee69f_yGIt7Uckw--52" target="2V9lee69f_yGIt7Uckw--54">
          <mxGeometry relative="1" as="geometry" />
        </mxCell>
        <mxCell id="2V9lee69f_yGIt7Uckw--56" value="true" style="edgeLabel;html=1;align=center;verticalAlign=middle;resizable=0;points=[];" vertex="1" connectable="0" parent="2V9lee69f_yGIt7Uckw--55">
          <mxGeometry x="-0.3111" y="2" relative="1" as="geometry">
            <mxPoint y="1" as="offset" />
          </mxGeometry>
        </mxCell>
        <mxCell id="2V9lee69f_yGIt7Uckw--52" value="i&amp;lt;size" style="rhombus;whiteSpace=wrap;html=1;" vertex="1" parent="WIyWlLk6GJQsqaUBKTNV-1">
          <mxGeometry x="870" y="1380" width="80" height="80" as="geometry" />
        </mxCell>
        <mxCell id="2V9lee69f_yGIt7Uckw--58" value="" style="edgeStyle=orthogonalEdgeStyle;rounded=0;orthogonalLoop=1;jettySize=auto;html=1;" edge="1" parent="WIyWlLk6GJQsqaUBKTNV-1" source="2V9lee69f_yGIt7Uckw--54" target="2V9lee69f_yGIt7Uckw--57">
          <mxGeometry relative="1" as="geometry" />
        </mxCell>
        <mxCell id="2V9lee69f_yGIt7Uckw--59" value="true" style="edgeLabel;html=1;align=center;verticalAlign=middle;resizable=0;points=[];" vertex="1" connectable="0" parent="2V9lee69f_yGIt7Uckw--58">
          <mxGeometry x="-0.167" relative="1" as="geometry">
            <mxPoint y="1" as="offset" />
          </mxGeometry>
        </mxCell>
        <mxCell id="2V9lee69f_yGIt7Uckw--60" style="edgeStyle=orthogonalEdgeStyle;rounded=0;orthogonalLoop=1;jettySize=auto;html=1;" edge="1" parent="WIyWlLk6GJQsqaUBKTNV-1" source="2V9lee69f_yGIt7Uckw--54">
          <mxGeometry relative="1" as="geometry">
            <mxPoint x="820" y="1420" as="targetPoint" />
            <Array as="points">
              <mxPoint x="1080" y="1300" />
              <mxPoint x="820" y="1300" />
            </Array>
          </mxGeometry>
        </mxCell>
        <mxCell id="2V9lee69f_yGIt7Uckw--54" value="arr[i]==find" style="rhombus;whiteSpace=wrap;html=1;" vertex="1" parent="WIyWlLk6GJQsqaUBKTNV-1">
          <mxGeometry x="1040" y="1380" width="80" height="80" as="geometry" />
        </mxCell>
        <mxCell id="2V9lee69f_yGIt7Uckw--90" style="edgeStyle=orthogonalEdgeStyle;rounded=0;orthogonalLoop=1;jettySize=auto;html=1;" edge="1" parent="WIyWlLk6GJQsqaUBKTNV-1" source="2V9lee69f_yGIt7Uckw--57">
          <mxGeometry relative="1" as="geometry">
            <mxPoint x="1950" y="1420" as="targetPoint" />
          </mxGeometry>
        </mxCell>
        <mxCell id="2V9lee69f_yGIt7Uckw--57" value="arr[i]" style="shape=parallelogram;perimeter=parallelogramPerimeter;whiteSpace=wrap;html=1;fixedSize=1;" vertex="1" parent="WIyWlLk6GJQsqaUBKTNV-1">
          <mxGeometry x="1200" y="1390" width="110" height="60" as="geometry" />
        </mxCell>
        <mxCell id="2V9lee69f_yGIt7Uckw--65" value="" style="edgeStyle=orthogonalEdgeStyle;rounded=0;orthogonalLoop=1;jettySize=auto;html=1;" edge="1" parent="WIyWlLk6GJQsqaUBKTNV-1" source="2V9lee69f_yGIt7Uckw--62" target="2V9lee69f_yGIt7Uckw--64">
          <mxGeometry relative="1" as="geometry" />
        </mxCell>
        <mxCell id="2V9lee69f_yGIt7Uckw--95" value="true" style="edgeLabel;html=1;align=center;verticalAlign=middle;resizable=0;points=[];" vertex="1" connectable="0" parent="2V9lee69f_yGIt7Uckw--65">
          <mxGeometry x="-0.0909" relative="1" as="geometry">
            <mxPoint y="-1" as="offset" />
          </mxGeometry>
        </mxCell>
        <mxCell id="2V9lee69f_yGIt7Uckw--87" value="" style="edgeStyle=orthogonalEdgeStyle;rounded=0;orthogonalLoop=1;jettySize=auto;html=1;" edge="1" parent="WIyWlLk6GJQsqaUBKTNV-1" source="2V9lee69f_yGIt7Uckw--62" target="2V9lee69f_yGIt7Uckw--86">
          <mxGeometry relative="1" as="geometry" />
        </mxCell>
        <mxCell id="2V9lee69f_yGIt7Uckw--94" value="false" style="edgeLabel;html=1;align=center;verticalAlign=middle;resizable=0;points=[];" vertex="1" connectable="0" parent="2V9lee69f_yGIt7Uckw--87">
          <mxGeometry x="-0.0071" y="-2" relative="1" as="geometry">
            <mxPoint x="-1" y="-1" as="offset" />
          </mxGeometry>
        </mxCell>
        <mxCell id="2V9lee69f_yGIt7Uckw--62" value="case==3" style="rhombus;whiteSpace=wrap;html=1;" vertex="1" parent="WIyWlLk6GJQsqaUBKTNV-1">
          <mxGeometry x="480" y="1660" width="80" height="80" as="geometry" />
        </mxCell>
        <mxCell id="2V9lee69f_yGIt7Uckw--66" style="edgeStyle=orthogonalEdgeStyle;rounded=0;orthogonalLoop=1;jettySize=auto;html=1;" edge="1" parent="WIyWlLk6GJQsqaUBKTNV-1" source="2V9lee69f_yGIt7Uckw--64" target="2V9lee69f_yGIt7Uckw--67">
          <mxGeometry relative="1" as="geometry">
            <mxPoint x="940" y="1700" as="targetPoint" />
          </mxGeometry>
        </mxCell>
        <mxCell id="2V9lee69f_yGIt7Uckw--64" value="end=n&lt;br&gt;start=0" style="rounded=0;whiteSpace=wrap;html=1;" vertex="1" parent="WIyWlLk6GJQsqaUBKTNV-1">
          <mxGeometry x="670" y="1670" width="120" height="60" as="geometry" />
        </mxCell>
        <mxCell id="2V9lee69f_yGIt7Uckw--69" value="" style="edgeStyle=orthogonalEdgeStyle;rounded=0;orthogonalLoop=1;jettySize=auto;html=1;" edge="1" parent="WIyWlLk6GJQsqaUBKTNV-1" source="2V9lee69f_yGIt7Uckw--67" target="2V9lee69f_yGIt7Uckw--68">
          <mxGeometry relative="1" as="geometry" />
        </mxCell>
        <mxCell id="2V9lee69f_yGIt7Uckw--67" value="start&amp;lt;=end" style="rhombus;whiteSpace=wrap;html=1;" vertex="1" parent="WIyWlLk6GJQsqaUBKTNV-1">
          <mxGeometry x="890" y="1660" width="80" height="80" as="geometry" />
        </mxCell>
        <mxCell id="2V9lee69f_yGIt7Uckw--71" value="" style="edgeStyle=orthogonalEdgeStyle;rounded=0;orthogonalLoop=1;jettySize=auto;html=1;" edge="1" parent="WIyWlLk6GJQsqaUBKTNV-1" source="2V9lee69f_yGIt7Uckw--68" target="2V9lee69f_yGIt7Uckw--70">
          <mxGeometry relative="1" as="geometry" />
        </mxCell>
        <mxCell id="2V9lee69f_yGIt7Uckw--68" value="mid=(start+end)/2" style="rounded=0;whiteSpace=wrap;html=1;" vertex="1" parent="WIyWlLk6GJQsqaUBKTNV-1">
          <mxGeometry x="1030" y="1670" width="120" height="60" as="geometry" />
        </mxCell>
        <mxCell id="2V9lee69f_yGIt7Uckw--74" value="" style="edgeStyle=orthogonalEdgeStyle;rounded=0;orthogonalLoop=1;jettySize=auto;html=1;" edge="1" parent="WIyWlLk6GJQsqaUBKTNV-1" source="2V9lee69f_yGIt7Uckw--70" target="2V9lee69f_yGIt7Uckw--73">
          <mxGeometry relative="1" as="geometry" />
        </mxCell>
        <mxCell id="2V9lee69f_yGIt7Uckw--82" value="false" style="edgeLabel;html=1;align=center;verticalAlign=middle;resizable=0;points=[];" vertex="1" connectable="0" parent="2V9lee69f_yGIt7Uckw--74">
          <mxGeometry x="-0.2778" y="1" relative="1" as="geometry">
            <mxPoint x="1" as="offset" />
          </mxGeometry>
        </mxCell>
        <mxCell id="2V9lee69f_yGIt7Uckw--84" style="edgeStyle=orthogonalEdgeStyle;rounded=0;orthogonalLoop=1;jettySize=auto;html=1;entryX=0;entryY=0.25;entryDx=0;entryDy=0;" edge="1" parent="WIyWlLk6GJQsqaUBKTNV-1">
          <mxGeometry relative="1" as="geometry">
            <mxPoint x="1290" y="1740" as="sourcePoint" />
            <mxPoint x="1583.8461538461538" y="1798.4615384615386" as="targetPoint" />
            <Array as="points">
              <mxPoint x="1290" y="1799" />
            </Array>
          </mxGeometry>
        </mxCell>
        <mxCell id="2V9lee69f_yGIt7Uckw--85" value="true" style="edgeLabel;html=1;align=center;verticalAlign=middle;resizable=0;points=[];" vertex="1" connectable="0" parent="2V9lee69f_yGIt7Uckw--84">
          <mxGeometry x="-0.1259" y="-4" relative="1" as="geometry">
            <mxPoint as="offset" />
          </mxGeometry>
        </mxCell>
        <mxCell id="2V9lee69f_yGIt7Uckw--70" value="arr[i]==find" style="rhombus;whiteSpace=wrap;html=1;rounded=0;" vertex="1" parent="WIyWlLk6GJQsqaUBKTNV-1">
          <mxGeometry x="1250" y="1660" width="80" height="80" as="geometry" />
        </mxCell>
        <mxCell id="2V9lee69f_yGIt7Uckw--72" value="false" style="text;html=1;align=center;verticalAlign=middle;resizable=0;points=[];autosize=1;strokeColor=none;fillColor=none;" vertex="1" parent="WIyWlLk6GJQsqaUBKTNV-1">
          <mxGeometry x="925" y="1278" width="50" height="30" as="geometry" />
        </mxCell>
        <mxCell id="2V9lee69f_yGIt7Uckw--76" value="" style="edgeStyle=orthogonalEdgeStyle;rounded=0;orthogonalLoop=1;jettySize=auto;html=1;" edge="1" parent="WIyWlLk6GJQsqaUBKTNV-1" source="2V9lee69f_yGIt7Uckw--73" target="2V9lee69f_yGIt7Uckw--75">
          <mxGeometry relative="1" as="geometry" />
        </mxCell>
        <mxCell id="2V9lee69f_yGIt7Uckw--77" value="true" style="edgeLabel;html=1;align=center;verticalAlign=middle;resizable=0;points=[];" vertex="1" connectable="0" parent="2V9lee69f_yGIt7Uckw--76">
          <mxGeometry x="0.025" relative="1" as="geometry">
            <mxPoint x="1" y="1" as="offset" />
          </mxGeometry>
        </mxCell>
        <mxCell id="2V9lee69f_yGIt7Uckw--79" value="false" style="edgeStyle=orthogonalEdgeStyle;rounded=0;orthogonalLoop=1;jettySize=auto;html=1;" edge="1" parent="WIyWlLk6GJQsqaUBKTNV-1" source="2V9lee69f_yGIt7Uckw--73" target="2V9lee69f_yGIt7Uckw--78">
          <mxGeometry relative="1" as="geometry" />
        </mxCell>
        <mxCell id="2V9lee69f_yGIt7Uckw--73" value="arr[mid]&amp;lt;find" style="rhombus;whiteSpace=wrap;html=1;" vertex="1" parent="WIyWlLk6GJQsqaUBKTNV-1">
          <mxGeometry x="1420" y="1660" width="80" height="80" as="geometry" />
        </mxCell>
        <mxCell id="2V9lee69f_yGIt7Uckw--81" style="edgeStyle=orthogonalEdgeStyle;rounded=0;orthogonalLoop=1;jettySize=auto;html=1;" edge="1" parent="WIyWlLk6GJQsqaUBKTNV-1" source="2V9lee69f_yGIt7Uckw--75">
          <mxGeometry relative="1" as="geometry">
            <mxPoint x="860" y="1700" as="targetPoint" />
          </mxGeometry>
        </mxCell>
        <mxCell id="2V9lee69f_yGIt7Uckw--75" value="start=mid+1" style="rounded=0;whiteSpace=wrap;html=1;" vertex="1" parent="WIyWlLk6GJQsqaUBKTNV-1">
          <mxGeometry x="1400" y="1560" width="120" height="60" as="geometry" />
        </mxCell>
        <mxCell id="2V9lee69f_yGIt7Uckw--80" style="edgeStyle=orthogonalEdgeStyle;rounded=0;orthogonalLoop=1;jettySize=auto;html=1;" edge="1" parent="WIyWlLk6GJQsqaUBKTNV-1" source="2V9lee69f_yGIt7Uckw--78">
          <mxGeometry relative="1" as="geometry">
            <mxPoint x="840" y="1700" as="targetPoint" />
            <Array as="points">
              <mxPoint x="1630" y="1490" />
              <mxPoint x="840" y="1490" />
            </Array>
          </mxGeometry>
        </mxCell>
        <mxCell id="2V9lee69f_yGIt7Uckw--78" value="end=mid-1" style="rounded=0;whiteSpace=wrap;html=1;" vertex="1" parent="WIyWlLk6GJQsqaUBKTNV-1">
          <mxGeometry x="1570" y="1670" width="120" height="60" as="geometry" />
        </mxCell>
        <mxCell id="2V9lee69f_yGIt7Uckw--89" style="edgeStyle=orthogonalEdgeStyle;rounded=0;orthogonalLoop=1;jettySize=auto;html=1;exitX=1;exitY=0.5;exitDx=0;exitDy=0;" edge="1" parent="WIyWlLk6GJQsqaUBKTNV-1" source="2V9lee69f_yGIt7Uckw--83">
          <mxGeometry relative="1" as="geometry">
            <mxPoint x="360" y="1020" as="targetPoint" />
            <Array as="points">
              <mxPoint x="1940" y="1810" />
              <mxPoint x="1940" y="1010" />
              <mxPoint x="361" y="1010" />
            </Array>
          </mxGeometry>
        </mxCell>
        <mxCell id="2V9lee69f_yGIt7Uckw--83" value="arr[mid]" style="shape=parallelogram;perimeter=parallelogramPerimeter;whiteSpace=wrap;html=1;fixedSize=1;" vertex="1" parent="WIyWlLk6GJQsqaUBKTNV-1">
          <mxGeometry x="1570" y="1780" width="120" height="60" as="geometry" />
        </mxCell>
        <mxCell id="2V9lee69f_yGIt7Uckw--98" style="edgeStyle=orthogonalEdgeStyle;rounded=0;orthogonalLoop=1;jettySize=auto;html=1;entryX=0;entryY=0.5;entryDx=0;entryDy=0;" edge="1" parent="WIyWlLk6GJQsqaUBKTNV-1" source="2V9lee69f_yGIt7Uckw--86" target="2V9lee69f_yGIt7Uckw--96">
          <mxGeometry relative="1" as="geometry" />
        </mxCell>
        <mxCell id="2V9lee69f_yGIt7Uckw--106" value="true" style="edgeLabel;html=1;align=center;verticalAlign=middle;resizable=0;points=[];" vertex="1" connectable="0" parent="2V9lee69f_yGIt7Uckw--98">
          <mxGeometry x="-0.2105" y="8" relative="1" as="geometry">
            <mxPoint as="offset" />
          </mxGeometry>
        </mxCell>
        <mxCell id="2V9lee69f_yGIt7Uckw--101" value="" style="edgeStyle=orthogonalEdgeStyle;rounded=0;orthogonalLoop=1;jettySize=auto;html=1;" edge="1" parent="WIyWlLk6GJQsqaUBKTNV-1" source="2V9lee69f_yGIt7Uckw--86">
          <mxGeometry relative="1" as="geometry">
            <mxPoint x="520" y="2040" as="targetPoint" />
          </mxGeometry>
        </mxCell>
        <mxCell id="2V9lee69f_yGIt7Uckw--107" value="false" style="edgeLabel;html=1;align=center;verticalAlign=middle;resizable=0;points=[];" vertex="1" connectable="0" parent="2V9lee69f_yGIt7Uckw--101">
          <mxGeometry x="-0.075" relative="1" as="geometry">
            <mxPoint y="-1" as="offset" />
          </mxGeometry>
        </mxCell>
        <mxCell id="2V9lee69f_yGIt7Uckw--86" value="case== 4" style="rhombus;whiteSpace=wrap;html=1;" vertex="1" parent="WIyWlLk6GJQsqaUBKTNV-1">
          <mxGeometry x="480" y="1880" width="80" height="80" as="geometry" />
        </mxCell>
        <mxCell id="2V9lee69f_yGIt7Uckw--99" style="edgeStyle=orthogonalEdgeStyle;rounded=0;orthogonalLoop=1;jettySize=auto;html=1;" edge="1" parent="WIyWlLk6GJQsqaUBKTNV-1" source="2V9lee69f_yGIt7Uckw--96" target="2V9lee69f_yGIt7Uckw--97">
          <mxGeometry relative="1" as="geometry" />
        </mxCell>
        <mxCell id="2V9lee69f_yGIt7Uckw--96" value="end" style="shape=parallelogram;perimeter=parallelogramPerimeter;whiteSpace=wrap;html=1;fixedSize=1;" vertex="1" parent="WIyWlLk6GJQsqaUBKTNV-1">
          <mxGeometry x="740" y="1890" width="120" height="60" as="geometry" />
        </mxCell>
        <mxCell id="2V9lee69f_yGIt7Uckw--97" value="end" style="ellipse;whiteSpace=wrap;html=1;" vertex="1" parent="WIyWlLk6GJQsqaUBKTNV-1">
          <mxGeometry x="1130" y="1880" width="120" height="80" as="geometry" />
        </mxCell>
        <mxCell id="2V9lee69f_yGIt7Uckw--103" style="edgeStyle=orthogonalEdgeStyle;rounded=0;orthogonalLoop=1;jettySize=auto;html=1;" edge="1" parent="WIyWlLk6GJQsqaUBKTNV-1">
          <mxGeometry relative="1" as="geometry">
            <mxPoint x="1950" y="1810" as="targetPoint" />
            <mxPoint x="570" y="2075" as="sourcePoint" />
            <Array as="points">
              <mxPoint x="1620" y="2075" />
              <mxPoint x="1620" y="2080" />
              <mxPoint x="1940" y="2080" />
              <mxPoint x="1940" y="1810" />
            </Array>
          </mxGeometry>
        </mxCell>
        <mxCell id="2V9lee69f_yGIt7Uckw--102" value="vui long nhap 1-4" style="shape=parallelogram;perimeter=parallelogramPerimeter;whiteSpace=wrap;html=1;fixedSize=1;" vertex="1" parent="WIyWlLk6GJQsqaUBKTNV-1">
          <mxGeometry x="470" y="2040" width="120" height="60" as="geometry" />
        </mxCell>
      </root>
    </mxGraphModel>
  </diagram>
</mxfile>
